# xmcd
#
# Track frame offsets: 
#        180
#        10511
#        29613
#        44007
#        56678
#        72058
#        87591
#        108855
#        120929
#        134730
#        153230
#        170928
#        184253
#        205058
#        216163
#        225660
#        237024
#        247651
#        261440
#        274880
#        290029
#        302349
#        312911
#        317095
#
# Disc length: 4399 seconds
#
# Revision: 0
# Processed by: cddbd v1.5.2PL0 Copyright (c) Steve Scherf et al.
# Submitted via: ExactAudioCopy v0.95b3
#
DISCID=5a112d18
DTITLE=Johnny Cash - The Johnny Cash Show
DYEAR=2006
DGENRE=Country
TTITLE0=Girl From The North Country (J. Mitchell)
TTITLE1=(Ghost) Riders In The Sky (W. Nelson)
TTITLE2=Folsom Prison Blues (W. Nelson)
TTITLE3=Father And Son (F. Apple)
TTITLE4=Gentle On My Mind (G. Campbell)
TTITLE5=Redemption Song (J. Strummer)
TTITLE6=The Wanderer (U2)
TTITLE7=Sea Of Heartbreak (T. Petty)
TTITLE8=I'm So Lonesome I Could Cry (N. Cave)
TTITLE9=Bird On A Wire (B. Walker)
TTITLE10=Bridge Over Troubled Water (F. Apple)
TTITLE11=We'll Meet Again (T. Bresh)
TTITLE12=Peace In The Valley (C. Perkins and J.L. Lewis)
TTITLE13=I Witnessed A Crime (B. Gibson)
TTITLE14=Hand Me Down World (Guess Who)
TTITLE15=Get Rhythm (S. Wonder)
TTITLE16=Matchbox (Derek and Dominos and C. Perkins)
TTITLE17=Pretty Woman (R. Orbison)
TTITLE18=Make You Wanna Go Home (J. South and J. Carter Cash)
TTITLE19=Girl From The North Country (B. Dylan)
TTITLE20=Long Black Veil (J. Mitchell)
TTITLE21=I Still Miss Someone (J. Mitchell)
TTITLE22=Last Train To Clarksville (The Monkees)
TTITLE23=Everybody Loves A Nut (The Monkees)
EXTD=
EXTT0=
EXTT1=
EXTT2=
EXTT3=
EXTT4=
EXTT5=
EXTT6=
EXTT7=
EXTT8=
EXTT9=
EXTT10=
EXTT11=
EXTT12=
EXTT13=
EXTT14=
EXTT15=
EXTT16=
EXTT17=
EXTT18=
EXTT19=
EXTT20=
EXTT21=
EXTT22=
EXTT23=
PLAYORDER=
